<svg viewBox="0 0 321 107" fill="none" xmlns="http://www.w3.org/2000/svg">
<path d="M17.2487 88.2866C17.2487 85.8562 19.1972 83.8861 21.6009 83.8861H37.7662C40.1698 83.8861 42.1184 85.8562 42.1184 88.2866C42.1184 90.7169 40.1698 92.6871 37.7662 92.6871H21.6009C19.1972 92.6871 17.2487 90.7169 17.2487 88.2866Z" fill="#103347"/>
<path d="M278.38 88.2866C278.38 85.8562 280.329 83.8861 282.733 83.8861H298.898C301.302 83.8861 303.25 85.8562 303.25 88.2866C303.25 90.7169 301.302 92.6871 298.898 92.6871H282.733C280.329 92.6871 278.38 90.7169 278.38 88.2866Z" fill="#103347"/>
<path d="M13.3103 1.75014C16.9313 1.75014 19.9952 2.37375 22.5021 3.62098C25.009 4.82798 26.919 6.558 28.2321 8.81106C29.5452 11.0239 30.2018 13.6591 30.2018 16.7169C30.2018 18.5274 29.9232 20.358 29.3661 22.2087C28.8488 24.0192 27.9933 25.6687 26.7996 27.1574C25.6456 28.646 24.0739 29.853 22.0843 30.7783C20.1345 31.6635 17.7271 32.106 14.8621 32.106H8.65465V46.1675H0V1.75014H13.3103ZM14.8024 23.5967C16.1156 23.5967 17.2098 23.3754 18.0852 22.9329C18.9607 22.4501 19.6371 21.8667 20.1146 21.1827C20.6319 20.4585 20.99 19.7142 21.189 18.9498C21.4277 18.1854 21.5471 17.5215 21.5471 16.9583C21.5471 16.5157 21.4675 15.9323 21.3084 15.2081C21.189 14.4437 20.9104 13.6793 20.4727 12.9148C20.035 12.1504 19.3586 11.5067 18.4434 10.9836C17.568 10.4606 16.3742 10.1991 14.8621 10.1991H8.65465V23.5967H14.8024Z" fill="#103347"/>
<path d="M31.5461 46.1675L51.3623 0H51.8398L71.656 46.1675H61.6285L48.9748 13.6994L55.242 9.3542L40.0814 46.1675H31.5461ZM45.0951 30.1145H58.286L61.3301 37.4772H42.4092L45.0951 30.1145Z" fill="#103347"/>
<path d="M104.501 12.4924C102.83 11.567 101.119 10.8026 99.3681 10.1991C97.6571 9.5956 96.0455 9.29385 94.5334 9.29385C92.6632 9.29385 91.191 9.67607 90.1166 10.4405C89.0422 11.2049 88.505 12.3516 88.505 13.8804C88.505 14.9265 88.9029 15.872 89.6988 16.7169C90.5344 17.5215 91.5889 18.2457 92.8622 18.8895C94.1753 19.5332 95.5282 20.1166 96.9209 20.6396C98.1943 21.1224 99.4477 21.7058 100.681 22.3897C101.955 23.0335 103.089 23.8582 104.083 24.8641C105.078 25.8297 105.874 27.0568 106.471 28.5454C107.068 29.9938 107.366 31.7842 107.366 33.9165C107.366 36.1696 106.789 38.2617 105.635 40.1929C104.481 42.1241 102.79 43.6932 100.562 44.9002C98.3335 46.0669 95.5879 46.6503 92.325 46.6503C90.6538 46.6503 88.9427 46.4894 87.1919 46.1675C85.4809 45.8054 83.7897 45.2824 82.1185 44.5984C80.4472 43.8742 78.8357 42.969 77.2838 41.8827L81.1038 35.0632C82.1384 35.8276 83.2526 36.5116 84.4463 37.1151C85.6798 37.6783 86.9134 38.1209 88.1469 38.4428C89.3804 38.7646 90.5145 38.9256 91.5491 38.9256C92.5837 38.9256 93.6182 38.7847 94.6528 38.5031C95.7272 38.1812 96.6026 37.6582 97.2791 36.934C97.9953 36.2098 98.3534 35.204 98.3534 33.9165C98.3534 33.0314 98.055 32.2267 97.4581 31.5025C96.901 30.7783 96.1251 30.1145 95.1303 29.511C94.1753 28.9075 93.1208 28.3845 91.9669 27.9419C90.614 27.4189 89.2213 26.8154 87.7888 26.1314C86.3563 25.4475 85.0034 24.6227 83.73 23.6571C82.4965 22.6513 81.4818 21.4241 80.686 19.9757C79.93 18.4871 79.5519 16.6766 79.5519 14.5443C79.5519 11.9694 80.109 9.73642 81.2232 7.84546C82.3771 5.9545 83.9887 4.46588 86.0578 3.37958C88.127 2.25305 90.5145 1.62944 93.2203 1.50874C96.7618 1.50874 99.6268 1.93119 101.815 2.77609C104.044 3.62098 106.033 4.62681 107.784 5.79357L104.501 12.4924Z" fill="#103347"/>
<path d="M142.284 12.4924C140.612 11.567 138.901 10.8026 137.151 10.1991C135.44 9.5956 133.828 9.29385 132.316 9.29385C130.446 9.29385 128.973 9.67607 127.899 10.4405C126.825 11.2049 126.288 12.3516 126.288 13.8804C126.288 14.9265 126.685 15.872 127.481 16.7169C128.317 17.5215 129.371 18.2457 130.645 18.8895C131.958 19.5332 133.311 20.1166 134.703 20.6396C135.977 21.1224 137.23 21.7058 138.464 22.3897C139.737 23.0335 140.871 23.8582 141.866 24.8641C142.861 25.8297 143.657 27.0568 144.253 28.5454C144.85 29.9938 145.149 31.7842 145.149 33.9165C145.149 36.1696 144.572 38.2617 143.418 40.1929C142.264 42.1241 140.573 43.6932 138.344 44.9002C136.116 46.0669 133.37 46.6503 130.108 46.6503C128.436 46.6503 126.725 46.4894 124.974 46.1675C123.263 45.8054 121.572 45.2824 119.901 44.5984C118.23 43.8742 116.618 42.969 115.066 41.8827L118.886 35.0632C119.921 35.8276 121.035 36.5116 122.229 37.1151C123.462 37.6783 124.696 38.1209 125.929 38.4428C127.163 38.7646 128.297 38.9256 129.332 38.9256C130.366 38.9256 131.401 38.7847 132.435 38.5031C133.51 38.1812 134.385 37.6582 135.062 36.934C135.778 36.2098 136.136 35.204 136.136 33.9165C136.136 33.0314 135.837 32.2267 135.241 31.5025C134.684 30.7783 133.908 30.1145 132.913 29.511C131.958 28.9075 130.903 28.3845 129.749 27.9419C128.396 27.4189 127.004 26.8154 125.571 26.1314C124.139 25.4475 122.786 24.6227 121.513 23.6571C120.279 22.6513 119.264 21.4241 118.468 19.9757C117.712 18.4871 117.334 16.6766 117.334 14.5443C117.334 11.9694 117.892 9.73642 119.006 7.84546C120.16 5.9545 121.771 4.46588 123.84 3.37958C125.91 2.25305 128.297 1.62944 131.003 1.50874C134.544 1.50874 137.409 1.93119 139.598 2.77609C141.826 3.62098 143.816 4.62681 145.567 5.79357L142.284 12.4924Z" fill="#103347"/>
<path d="M169.919 1.75014C173.54 1.75014 176.604 2.37375 179.111 3.62098C181.618 4.82798 183.528 6.558 184.841 8.81106C186.154 11.0239 186.811 13.6591 186.811 16.7169C186.811 18.5274 186.532 20.358 185.975 22.2087C185.458 24.0192 184.602 25.6687 183.409 27.1574C182.255 28.646 180.683 29.853 178.693 30.7783C176.744 31.6635 174.336 32.106 171.471 32.106H165.264V46.1675H156.609V1.75014H169.919ZM171.412 23.5967C172.725 23.5967 173.819 23.3754 174.694 22.9329C175.57 22.4501 176.246 21.8667 176.724 21.1827C177.241 20.4585 177.599 19.7142 177.798 18.9498C178.037 18.1854 178.156 17.5215 178.156 16.9583C178.156 16.5157 178.077 15.9323 177.917 15.2081C177.798 14.4437 177.52 13.6793 177.082 12.9148C176.644 12.1504 175.968 11.5067 175.052 10.9836C174.177 10.4606 172.983 10.1991 171.471 10.1991H165.264V23.5967H171.412Z" fill="#103347"/>
<path d="M194.853 24.0192C194.853 20.9615 195.43 18.0647 196.584 15.3288C197.738 12.593 199.33 10.179 201.359 8.08686C203.428 5.9545 205.816 4.28483 208.522 3.07783C211.227 1.87084 214.132 1.26735 217.236 1.26735C220.3 1.26735 223.185 1.87084 225.891 3.07783C228.596 4.28483 230.984 5.9545 233.053 8.08686C235.162 10.179 236.794 12.593 237.947 15.3288C239.141 18.0647 239.738 20.9615 239.738 24.0192C239.738 27.1574 239.141 30.0944 237.947 32.8302C236.794 35.5661 235.162 37.9801 233.053 40.0722C230.984 42.1241 228.596 43.7334 225.891 44.9002C223.185 46.0669 220.3 46.6503 217.236 46.6503C214.132 46.6503 211.227 46.0669 208.522 44.9002C205.816 43.7334 203.428 42.1241 201.359 40.0722C199.33 37.9801 197.738 35.5661 196.584 32.8302C195.43 30.0944 194.853 27.1574 194.853 24.0192ZM203.806 24.0192C203.806 25.9906 204.145 27.8413 204.821 29.5713C205.537 31.2611 206.512 32.7699 207.746 34.0976C209.019 35.385 210.471 36.3909 212.103 37.1151C213.774 37.8393 215.585 38.2014 217.534 38.2014C219.405 38.2014 221.136 37.8393 222.727 37.1151C224.359 36.3909 225.771 35.385 226.965 34.0976C228.159 32.7699 229.094 31.2611 229.77 29.5713C230.447 27.8413 230.785 25.9906 230.785 24.0192C230.785 22.0075 230.427 20.1367 229.711 18.4067C229.034 16.6766 228.079 15.1679 226.846 13.8804C225.652 12.5527 224.239 11.5268 222.608 10.8026C220.976 10.0784 219.206 9.7163 217.296 9.7163C215.386 9.7163 213.615 10.0784 211.984 10.8026C210.352 11.5268 208.92 12.5527 207.686 13.8804C206.453 15.1679 205.498 16.6766 204.821 18.4067C204.145 20.1367 203.806 22.0075 203.806 24.0192Z" fill="#103347"/>
<path d="M264.661 1.75014C267.407 1.75014 269.854 2.11224 272.003 2.83643C274.152 3.5204 275.942 4.52623 277.375 5.85392C278.847 7.14138 279.961 8.71047 280.717 10.5612C281.473 12.3717 281.851 14.4236 281.851 16.7169C281.851 18.5274 281.573 20.3378 281.016 22.1483C280.498 23.9588 279.623 25.6084 278.389 27.097C277.196 28.5856 275.604 29.7926 273.614 30.718C271.625 31.6031 269.158 32.0457 266.213 32.0457H260.006V46.1675H251.351V1.75014H264.661ZM266.153 23.5967C267.467 23.5967 268.561 23.3754 269.436 22.9329C270.312 22.4903 270.988 21.9271 271.466 21.2431C271.983 20.5591 272.341 19.855 272.54 19.1309C272.779 18.3664 272.898 17.6623 272.898 17.0186C272.898 16.5358 272.819 15.9323 272.659 15.2081C272.54 14.4437 272.261 13.6793 271.824 12.9148C271.386 12.1504 270.71 11.5067 269.794 10.9836C268.919 10.4606 267.725 10.1991 266.213 10.1991H260.006V23.5967H266.153ZM274.271 29.0282L285.134 46.1675H275.047L263.945 29.2696L274.271 29.0282Z" fill="#103347"/>
<path d="M291.395 1.75014H321V10.1991H310.316V46.1675H301.661V10.1991H291.395V1.75014Z" fill="#103347"/>
<path d="M75.3757 62.0998C78.9967 62.0998 82.0607 62.7234 84.5675 63.9707C87.0744 65.1777 88.9844 66.9077 90.2975 69.1607C91.6106 71.3736 92.2672 74.0088 92.2672 77.0666C92.2672 78.877 91.9886 80.7076 91.4316 82.5584C90.9143 84.3689 90.0588 86.0184 88.865 87.507C87.7111 88.9957 86.1393 90.2027 84.1497 91.128C82.1999 92.0132 79.7925 92.4557 76.9275 92.4557H70.7201V106.517H62.0654V62.0998H75.3757ZM76.8679 83.9464C78.181 83.9464 79.2752 83.7251 80.1507 83.2826C81.0261 82.7998 81.7025 82.2164 82.18 81.5324C82.6973 80.8082 83.0554 80.0639 83.2544 79.2995C83.4932 78.5351 83.6125 77.8712 83.6125 77.3079C83.6125 76.8654 83.5329 76.282 83.3738 75.5578C83.2544 74.7934 82.9759 74.029 82.5382 73.2645C82.1005 72.5001 81.424 71.8564 80.5088 71.3333C79.6334 70.8103 78.4396 70.5488 76.9275 70.5488H70.7201V83.9464H76.8679Z" fill="#103347"/>
<path d="M93.6115 106.517L113.428 60.3497H113.905L133.721 106.517H123.694L111.04 74.0491L117.307 69.7039L102.147 106.517H93.6115ZM107.161 90.4642H120.351L123.395 97.8268H104.475L107.161 90.4642Z" fill="#103347"/>
<path d="M176.936 102.051C176.419 102.615 175.603 103.198 174.489 103.801C173.375 104.365 172.081 104.888 170.609 105.371C169.177 105.853 167.704 106.236 166.192 106.517C164.68 106.839 163.248 107 161.895 107C158.313 107 155.09 106.477 152.225 105.431C149.36 104.345 146.913 102.856 144.884 100.965C142.854 99.0338 141.303 96.7607 140.228 94.1455C139.154 91.5304 138.617 88.6738 138.617 85.5759C138.617 81.5123 139.214 77.9919 140.407 75.0147C141.641 71.9972 143.292 69.5027 145.361 67.5313C147.47 65.5196 149.878 64.031 152.583 63.0654C155.329 62.0998 158.194 61.617 161.178 61.617C164.004 61.617 166.59 61.9389 168.938 62.5826C171.286 63.1861 173.275 63.9505 174.907 64.8759L172.101 73.0231C171.385 72.6208 170.43 72.2185 169.236 71.8161C168.043 71.4138 166.829 71.0919 165.595 70.8505C164.362 70.5689 163.268 70.4281 162.313 70.4281C159.925 70.4281 157.816 70.7298 155.986 71.3333C154.155 71.9368 152.603 72.8421 151.33 74.0491C150.097 75.2561 149.161 76.7648 148.525 78.5753C147.888 80.3456 147.57 82.4176 147.57 84.7913C147.57 86.8834 147.928 88.7744 148.644 90.4642C149.36 92.1137 150.355 93.5219 151.629 94.6887C152.942 95.8554 154.474 96.7406 156.224 97.344C158.015 97.9475 159.985 98.2493 162.133 98.2493C163.367 98.2493 164.501 98.1688 165.536 98.0079C166.57 97.8067 167.446 97.505 168.162 97.1026V91.7315H160.582V83.2826H176.936V102.051Z" fill="#103347"/>
<path d="M189.752 62.0998H219.715V70.5488H198.407V80.0237H217.268V88.4726H198.407V98.0682H220.551V106.517H189.752V62.0998Z" fill="#103347"/>
<path d="M255.946 72.8421C254.275 71.9167 252.564 71.1523 250.813 70.5488C249.102 69.9453 247.49 69.6435 245.978 69.6435C244.108 69.6435 242.636 70.0258 241.561 70.7902C240.487 71.5546 239.95 72.7013 239.95 74.2301C239.95 75.2762 240.348 76.2217 241.144 77.0666C241.979 77.8712 243.034 78.5954 244.307 79.2391C245.62 79.8829 246.973 80.4662 248.366 80.9893C249.639 81.4721 250.892 82.0555 252.126 82.7394C253.399 83.3831 254.533 84.2079 255.528 85.2138C256.523 86.1794 257.319 87.4065 257.916 88.8951C258.513 90.3435 258.811 92.1339 258.811 94.2662C258.811 96.5193 258.234 98.6114 257.08 100.543C255.926 102.474 254.235 104.043 252.007 105.25C249.778 106.417 247.033 107 243.77 107C242.099 107 240.388 106.839 238.637 106.517C236.926 106.155 235.235 105.632 233.563 104.948C231.892 104.224 230.28 103.319 228.729 102.232L232.549 95.4129C233.583 96.1773 234.697 96.8613 235.891 97.4647C237.125 98.028 238.358 98.4706 239.592 98.7924C240.825 99.1143 241.959 99.2752 242.994 99.2752C244.028 99.2752 245.063 99.1344 246.098 98.8528C247.172 98.5309 248.047 98.0079 248.724 97.2837C249.44 96.5595 249.798 95.5537 249.798 94.2662C249.798 93.3811 249.5 92.5764 248.903 91.8522C248.346 91.128 247.57 90.4642 246.575 89.8607C245.62 89.2572 244.566 88.7342 243.412 88.2916C242.059 87.7686 240.666 87.1651 239.234 86.4811C237.801 85.7971 236.448 84.9724 235.175 84.0068C233.941 83.0009 232.927 81.7738 232.131 80.3254C231.375 78.8368 230.997 77.0263 230.997 74.894C230.997 72.319 231.554 70.0861 232.668 68.1951C233.822 66.3042 235.433 64.8156 237.503 63.7293C239.572 62.6027 241.959 61.9791 244.665 61.8584C248.207 61.8584 251.072 62.2809 253.26 63.1258C255.488 63.9707 257.478 64.9765 259.229 66.1433L255.946 72.8421Z" fill="#103347"/>
</svg>
