<svg viewBox="0 0 199 297" fill="none" xmlns="http://www.w3.org/2000/svg">
<mask id="path-1-inside-1_2_5" fill="white">
<path d="M57 262H180V263C180 271.284 173.284 278 165 278H57V262Z"/>
</mask>
<path d="M57 262H180V263C180 271.284 173.284 278 165 278H57V262Z" fill="white"/>
<path d="M57 262H180H57ZM186 263C186 274.598 176.598 284 165 284H57V272H165C169.971 272 174 267.971 174 263H186ZM57 278V262V278ZM186 262V263C186 274.598 176.598 284 165 284V272C169.971 272 174 267.971 174 263V262H186Z" fill="#103347" mask="url(#path-1-inside-1_2_5)"/>
<path d="M33.2592 282.929L15.5 292.759V258.5H54.5V292.855L35.6363 282.905L34.4412 282.274L33.2592 282.929Z" fill="white" stroke="#103347" stroke-width="5"/>
<mask id="path-4-inside-2_2_5" fill="white">
<path d="M0 5C0 2.23858 2.23858 0 5 0H184C192.284 0 199 6.71573 199 15V247C199 255.284 192.284 262 184 262H5C2.23858 262 0 259.761 0 257V5Z"/>
</mask>
<path d="M0 5C0 2.23858 2.23858 0 5 0H184C192.284 0 199 6.71573 199 15V247C199 255.284 192.284 262 184 262H5C2.23858 262 0 259.761 0 257V5Z" fill="#E8F0F7" stroke="#103347" stroke-width="18" mask="url(#path-4-inside-2_2_5)"/>
<path d="M19 23C19 15.268 25.268 9 33 9H184C187.314 9 190 11.6863 190 15V247C190 250.314 187.314 253 184 253H19V23Z" fill="#B6D2DD"/>
<path d="M152 94C152 121.446 128.667 144 99.5 144C70.3325 144 47 121.446 47 94C47 66.5544 70.3325 44 99.5 44C128.667 44 152 66.5544 152 94Z" stroke="#103347" stroke-width="8"/>
<path fill-rule="evenodd" clip-rule="evenodd" d="M136.264 52.9944C127.426 62.7517 114.323 69.0001 99.5 69.0001C84.6769 69.0001 71.5737 62.7517 62.7358 52.9944C60.6628 54.6937 58.7202 56.5341 56.9242 58.5001C67.2815 69.8374 82.5155 77.0001 99.5 77.0001C116.484 77.0001 131.719 69.8374 142.076 58.5001C140.28 56.5341 138.337 54.6937 136.264 52.9944Z" fill="#103347"/>
<path fill-rule="evenodd" clip-rule="evenodd" d="M62.8116 135.006C71.6495 125.248 84.7527 119 99.5758 119C114.399 119 127.502 125.248 136.34 135.006C138.413 133.306 140.356 131.466 142.152 129.5C131.794 118.163 116.56 111 99.5758 111C82.5913 111 67.3572 118.163 57 129.5C58.796 131.466 60.7386 133.306 62.8116 135.006Z" fill="#103347"/>
<path d="M125 94C125 108.373 121.809 121.188 116.849 130.266C111.808 139.494 105.499 144 99.5 144C93.5006 144 87.192 139.494 82.1507 130.266C77.1913 121.188 74 108.373 74 94C74 79.6267 77.1913 66.8121 82.1507 57.7339C87.192 48.5058 93.5006 44 99.5 44C105.499 44 111.808 48.5058 116.849 57.7339C121.809 66.8121 125 79.6267 125 94Z" stroke="#103347" stroke-width="8"/>
<rect x="45" y="90" width="108" height="8" fill="#103347"/>
<rect x="104" y="40" width="108" height="8" transform="rotate(90 104 40)" fill="#103347"/>
<path d="M57 262H165C165 265.314 162.314 268 159 268H57V262Z" fill="#B6D2DD"/>
<path d="M42.7705 215.655C42.7705 214.701 43.5354 213.927 44.4788 213.927H50.8241C51.7676 213.927 52.5324 214.701 52.5324 215.655C52.5324 216.609 51.7676 217.382 50.8241 217.382H44.4788C43.5354 217.382 42.7705 216.609 42.7705 215.655Z" fill="#103347"/>
<path d="M145.271 215.655C145.271 214.701 146.036 213.927 146.979 213.927H153.324C154.268 213.927 155.033 214.701 155.033 215.655C155.033 216.609 154.268 217.382 153.324 217.382H146.979C146.036 217.382 145.271 216.609 145.271 215.655Z" fill="#103347"/>
<path d="M41.2246 181.687C42.6459 181.687 43.8486 181.932 44.8326 182.421C45.8166 182.895 46.5663 183.574 47.0817 184.459C47.5972 185.327 47.8549 186.362 47.8549 187.562C47.8549 188.272 47.7456 188.991 47.5269 189.717C47.3238 190.428 46.988 191.076 46.5195 191.66C46.0665 192.244 45.4496 192.718 44.6686 193.081C43.9033 193.429 42.9583 193.602 41.8337 193.602H39.3972V199.122H36V181.687H41.2246ZM41.8103 190.262C42.3257 190.262 42.7553 190.175 43.0989 190.002C43.4425 189.812 43.708 189.583 43.8955 189.315C44.0985 189.03 44.2391 188.738 44.3172 188.438C44.4109 188.138 44.4577 187.878 44.4577 187.657C44.4577 187.483 44.4265 187.254 44.364 186.97C44.3172 186.669 44.2078 186.369 44.036 186.069C43.8642 185.769 43.5987 185.517 43.2395 185.311C42.8958 185.106 42.4273 185.003 41.8337 185.003H39.3972V190.262H41.8103Z" fill="#103347"/>
<path d="M48.3826 199.122L56.1609 181H56.3483L64.1266 199.122H60.1906L55.2238 186.377L57.6838 184.672L51.7329 199.122H48.3826ZM53.7009 192.821H58.8786L60.0735 195.711H52.6466L53.7009 192.821Z" fill="#103347"/>
<path d="M77.0192 185.904C76.3632 185.54 75.6915 185.24 75.0043 185.003C74.3327 184.766 73.7001 184.648 73.1066 184.648C72.3725 184.648 71.7946 184.798 71.3729 185.098C70.9511 185.398 70.7403 185.848 70.7403 186.448C70.7403 186.859 70.8965 187.23 71.2089 187.562C71.5369 187.878 71.9508 188.162 72.4506 188.415C72.966 188.667 73.4971 188.896 74.0437 189.102C74.5435 189.291 75.0355 189.52 75.5197 189.788C76.0195 190.041 76.4647 190.365 76.8552 190.76C77.2456 191.139 77.558 191.62 77.7923 192.205C78.0266 192.773 78.1437 193.476 78.1437 194.313C78.1437 195.197 77.9173 196.019 77.4643 196.777C77.0114 197.535 76.3475 198.151 75.4729 198.624C74.5982 199.082 73.5205 199.311 72.2397 199.311C71.5837 199.311 70.9121 199.248 70.2249 199.122C69.5532 198.98 68.8894 198.774 68.2334 198.506C67.5774 198.222 66.9448 197.866 66.3357 197.44L67.8351 194.763C68.2412 195.063 68.6786 195.332 69.1471 195.569C69.6313 195.79 70.1155 195.963 70.5997 196.09C71.0839 196.216 71.5291 196.279 71.9352 196.279C72.3412 196.279 72.7473 196.224 73.1534 196.113C73.5752 195.987 73.9188 195.782 74.1843 195.497C74.4654 195.213 74.606 194.818 74.606 194.313C74.606 193.966 74.4889 193.65 74.2546 193.365C74.0359 193.081 73.7313 192.821 73.3409 192.584C72.966 192.347 72.5521 192.142 72.0992 191.968C71.5681 191.763 71.0214 191.526 70.4591 191.257C69.8969 190.989 69.3658 190.665 68.866 190.286C68.3818 189.891 67.9835 189.409 67.6711 188.841C67.3744 188.257 67.226 187.546 67.226 186.709C67.226 185.698 67.4447 184.822 67.882 184.08C68.3349 183.337 68.9675 182.753 69.7797 182.327C70.5919 181.884 71.5291 181.64 72.5912 181.592C73.9813 181.592 75.1058 181.758 75.9649 182.09C76.8396 182.421 77.6205 182.816 78.3077 183.274L77.0192 185.904Z" fill="#103347"/>
<path d="M91.8497 185.904C91.1937 185.54 90.5221 185.24 89.8348 185.003C89.1632 184.766 88.5306 184.648 87.9371 184.648C87.203 184.648 86.6251 184.798 86.2034 185.098C85.7817 185.398 85.5708 185.848 85.5708 186.448C85.5708 186.859 85.727 187.23 86.0394 187.562C86.3674 187.878 86.7813 188.162 87.2811 188.415C87.7965 188.667 88.3276 188.896 88.8742 189.102C89.3741 189.291 89.8661 189.52 90.3503 189.788C90.8501 190.041 91.2952 190.365 91.6857 190.76C92.0762 191.139 92.3885 191.62 92.6228 192.205C92.8571 192.773 92.9743 193.476 92.9743 194.313C92.9743 195.197 92.7478 196.019 92.2948 196.777C91.8419 197.535 91.1781 198.151 90.3034 198.624C89.4287 199.082 88.351 199.311 87.0702 199.311C86.4142 199.311 85.7426 199.248 85.0554 199.122C84.3838 198.98 83.7199 198.774 83.0639 198.506C82.4079 198.222 81.7754 197.866 81.1662 197.44L82.6656 194.763C83.0717 195.063 83.5091 195.332 83.9777 195.569C84.4618 195.79 84.946 195.963 85.4302 196.09C85.9144 196.216 86.3596 196.279 86.7657 196.279C87.1718 196.279 87.5779 196.224 87.984 196.113C88.4057 195.987 88.7493 195.782 89.0148 195.497C89.296 195.213 89.4365 194.818 89.4365 194.313C89.4365 193.966 89.3194 193.65 89.0851 193.365C88.8664 193.081 88.5619 192.821 88.1714 192.584C87.7965 192.347 87.3826 192.142 86.9297 191.968C86.3986 191.763 85.852 191.526 85.2897 191.257C84.7274 190.989 84.1963 190.665 83.6965 190.286C83.2123 189.891 82.814 189.409 82.5017 188.841C82.2049 188.257 82.0565 187.546 82.0565 186.709C82.0565 185.698 82.2752 184.822 82.7125 184.08C83.1655 183.337 83.798 182.753 84.6102 182.327C85.4224 181.884 86.3596 181.64 87.4217 181.592C88.8118 181.592 89.9363 181.758 90.7954 182.09C91.6701 182.421 92.451 182.816 93.1383 183.274L91.8497 185.904Z" fill="#103347"/>
<path d="M102.697 181.687C104.119 181.687 105.321 181.932 106.305 182.421C107.289 182.895 108.039 183.574 108.554 184.459C109.07 185.327 109.328 186.362 109.328 187.562C109.328 188.272 109.218 188.991 109 189.717C108.797 190.428 108.461 191.076 107.992 191.66C107.539 192.244 106.922 192.718 106.141 193.081C105.376 193.429 104.431 193.602 103.306 193.602H100.87V199.122H97.4727V181.687H102.697ZM103.283 190.262C103.798 190.262 104.228 190.175 104.572 190.002C104.915 189.812 105.181 189.583 105.368 189.315C105.571 189.03 105.712 188.738 105.79 188.438C105.884 188.138 105.93 187.878 105.93 187.657C105.93 187.483 105.899 187.254 105.837 186.97C105.79 186.669 105.681 186.369 105.509 186.069C105.337 185.769 105.071 185.517 104.712 185.311C104.369 185.106 103.9 185.003 103.306 185.003H100.87V190.262H103.283Z" fill="#103347"/>
<path d="M112.484 190.428C112.484 189.228 112.711 188.091 113.164 187.017C113.617 185.943 114.242 184.995 115.038 184.174C115.85 183.337 116.788 182.682 117.85 182.208C118.912 181.734 120.052 181.497 121.27 181.497C122.473 181.497 123.605 181.734 124.667 182.208C125.729 182.682 126.667 183.337 127.479 184.174C128.307 184.995 128.947 185.943 129.4 187.017C129.869 188.091 130.103 189.228 130.103 190.428C130.103 191.66 129.869 192.813 129.4 193.887C128.947 194.961 128.307 195.908 127.479 196.729C126.667 197.535 125.729 198.166 124.667 198.624C123.605 199.082 122.473 199.311 121.27 199.311C120.052 199.311 118.912 199.082 117.85 198.624C116.788 198.166 115.85 197.535 115.038 196.729C114.242 195.908 113.617 194.961 113.164 193.887C112.711 192.813 112.484 191.66 112.484 190.428ZM115.999 190.428C115.999 191.202 116.132 191.928 116.397 192.607C116.678 193.271 117.061 193.863 117.545 194.384C118.045 194.889 118.615 195.284 119.255 195.569C119.911 195.853 120.622 195.995 121.387 195.995C122.121 195.995 122.801 195.853 123.426 195.569C124.066 195.284 124.621 194.889 125.089 194.384C125.558 193.863 125.925 193.271 126.19 192.607C126.456 191.928 126.589 191.202 126.589 190.428C126.589 189.638 126.448 188.904 126.167 188.225C125.901 187.546 125.526 186.954 125.042 186.448C124.574 185.927 124.019 185.525 123.379 185.24C122.738 184.956 122.043 184.814 121.294 184.814C120.544 184.814 119.849 184.956 119.208 185.24C118.568 185.525 118.006 185.927 117.522 186.448C117.037 186.954 116.663 187.546 116.397 188.225C116.132 188.904 115.999 189.638 115.999 190.428Z" fill="#103347"/>
<path d="M139.886 181.687C140.963 181.687 141.924 181.829 142.767 182.113C143.611 182.382 144.314 182.777 144.876 183.298C145.454 183.803 145.891 184.419 146.188 185.146C146.485 185.856 146.633 186.662 146.633 187.562C146.633 188.272 146.524 188.983 146.305 189.694C146.102 190.404 145.759 191.052 145.274 191.636C144.806 192.221 144.181 192.694 143.4 193.058C142.619 193.405 141.651 193.579 140.495 193.579H138.058V199.122H134.661V181.687H139.886ZM140.471 190.262C140.987 190.262 141.416 190.175 141.76 190.002C142.104 189.828 142.369 189.607 142.557 189.338C142.76 189.07 142.9 188.794 142.978 188.509C143.072 188.209 143.119 187.933 143.119 187.68C143.119 187.491 143.088 187.254 143.025 186.97C142.978 186.669 142.869 186.369 142.697 186.069C142.525 185.769 142.26 185.517 141.901 185.311C141.557 185.106 141.088 185.003 140.495 185.003H138.058V190.262H140.471ZM143.658 192.394L147.922 199.122H143.962L139.605 192.489L143.658 192.394Z" fill="#103347"/>
<path d="M150.379 181.687H162V185.003H157.806V199.122H154.409V185.003H150.379V181.687Z" fill="#103347"/>
<path d="M65.5867 205.376C67.0081 205.376 68.2107 205.62 69.1947 206.11C70.1787 206.584 70.9284 207.263 71.4439 208.147C71.9593 209.016 72.217 210.05 72.217 211.25C72.217 211.961 72.1077 212.68 71.889 213.406C71.686 214.117 71.3502 214.764 70.8816 215.349C70.4286 215.933 69.8117 216.407 69.0307 216.77C68.2654 217.117 67.3204 217.291 66.1959 217.291H63.7593V222.81H60.3621V205.376H65.5867ZM66.1724 213.951C66.6879 213.951 67.1174 213.864 67.461 213.69C67.8046 213.501 68.0702 213.272 68.2576 213.003C68.4606 212.719 68.6012 212.427 68.6793 212.127C68.773 211.827 68.8199 211.566 68.8199 211.345C68.8199 211.171 68.7886 210.942 68.7262 210.658C68.6793 210.358 68.57 210.058 68.3982 209.758C68.2263 209.458 67.9608 209.205 67.6016 209C67.258 208.795 66.7894 208.692 66.1959 208.692H63.7593V213.951H66.1724Z" fill="#103347"/>
<path d="M72.7447 222.81L80.523 204.689H80.7105L88.4888 222.81H84.5528L79.5859 210.066L82.0459 208.36L76.095 222.81H72.7447ZM78.063 216.509H83.2407L84.4356 219.399H77.0087L78.063 216.509Z" fill="#103347"/>
<path d="M105.451 221.058C105.248 221.279 104.928 221.508 104.491 221.745C104.054 221.966 103.546 222.171 102.968 222.36C102.406 222.55 101.828 222.7 101.234 222.81C100.641 222.937 100.079 223 99.5475 223C98.1417 223 96.8766 222.795 95.752 222.384C94.6274 221.958 93.6669 221.373 92.8703 220.631C92.0737 219.873 91.4646 218.981 91.0429 217.954C90.6211 216.928 90.4103 215.807 90.4103 214.591C90.4103 212.995 90.6446 211.614 91.1131 210.445C91.5973 209.261 92.2455 208.281 93.0577 207.508C93.8855 206.718 94.8305 206.134 95.8926 205.755C96.9703 205.376 98.0949 205.186 99.2663 205.186C100.375 205.186 101.391 205.312 102.312 205.565C103.234 205.802 104.015 206.102 104.655 206.465L103.554 209.663C103.273 209.505 102.898 209.347 102.429 209.19C101.961 209.032 101.484 208.905 101 208.81C100.516 208.7 100.086 208.645 99.7115 208.645C98.7743 208.645 97.9465 208.763 97.228 209C96.5095 209.237 95.9004 209.592 95.4006 210.066C94.9164 210.54 94.5493 211.132 94.2994 211.843C94.0495 212.538 93.9246 213.351 93.9246 214.283C93.9246 215.104 94.0652 215.846 94.3463 216.509C94.6274 217.157 95.0179 217.71 95.5177 218.168C96.0332 218.625 96.6345 218.973 97.3217 219.21C98.0246 219.447 98.7977 219.565 99.6412 219.565C100.125 219.565 100.571 219.534 100.977 219.47C101.383 219.391 101.726 219.273 102.007 219.115V217.007H99.032V213.69H105.451V221.058Z" fill="#103347"/>
<path d="M110.482 205.376H122.243V208.692H113.879V212.411H121.283V215.728H113.879V219.494H122.571V222.81H110.482V205.376Z" fill="#103347"/>
<path d="M136.465 209.592C135.809 209.229 135.137 208.929 134.45 208.692C133.778 208.455 133.146 208.337 132.552 208.337C131.818 208.337 131.24 208.487 130.818 208.787C130.397 209.087 130.186 209.537 130.186 210.137C130.186 210.548 130.342 210.919 130.654 211.25C130.982 211.566 131.396 211.851 131.896 212.103C132.412 212.356 132.943 212.585 133.489 212.79C133.989 212.98 134.481 213.209 134.965 213.477C135.465 213.73 135.91 214.054 136.301 214.448C136.691 214.827 137.004 215.309 137.238 215.893C137.472 216.462 137.589 217.165 137.589 218.002C137.589 218.886 137.363 219.707 136.91 220.465C136.457 221.223 135.793 221.839 134.918 222.313C134.044 222.771 132.966 223 131.685 223C131.029 223 130.358 222.937 129.67 222.81C128.999 222.668 128.335 222.463 127.679 222.195C127.023 221.91 126.39 221.555 125.781 221.129L127.281 218.452C127.687 218.752 128.124 219.02 128.593 219.257C129.077 219.478 129.561 219.652 130.045 219.778C130.53 219.905 130.975 219.968 131.381 219.968C131.787 219.968 132.193 219.913 132.599 219.802C133.021 219.676 133.364 219.47 133.63 219.186C133.911 218.902 134.052 218.507 134.052 218.002C134.052 217.654 133.934 217.338 133.7 217.054C133.482 216.77 133.177 216.509 132.786 216.272C132.412 216.036 131.998 215.83 131.545 215.657C131.014 215.451 130.467 215.214 129.905 214.946C129.342 214.677 128.811 214.354 128.312 213.975C127.827 213.58 127.429 213.098 127.117 212.53C126.82 211.945 126.672 211.235 126.672 210.398C126.672 209.387 126.89 208.51 127.328 207.768C127.781 207.026 128.413 206.442 129.225 206.015C130.038 205.573 130.975 205.328 132.037 205.281C133.427 205.281 134.551 205.447 135.41 205.778C136.285 206.11 137.066 206.505 137.753 206.963L136.465 209.592Z" fill="#103347"/>
</svg>
